<svg xmlns="http://www.w3.org/2000/svg" viewBox="0 0 80 80" fill="none">
  <circle cx="40" cy="40" r="38" fill="#fff" stroke="#ddd" stroke-width="2"/>
  <path d="M40 58 C40 58 18 44 18 30 C18 22 24 18 30 18 C34 18 38 20 40 24 C42 20 46 18 50 18 C56 18 62 22 62 30 C62 44 40 58 40 58 Z" fill="#f5f5f5" stroke="#bbb" stroke-width="1.2" stroke-linejoin="round"/>
  <path d="M40 24 C38 20 34 18 30 18 C24 18 18 22 18 30 C18 36 28 46 40 54" fill="#ddd" opacity="0.35"/>
  <line x1="40" y1="24" x2="40" y2="54" stroke="#e8e8e8" stroke-width="0.8"/>
</svg>
